<svg t="1684083886701" class="icon" viewBox="0 0 1024 1024" version="1.1" xmlns="http://www.w3.org/2000/svg" p-id="16861" width="200" height="200"><path d="M161.408 120.576L512 42.666667l350.592 77.909333a42.666667 42.666667 0 0 1 33.408 41.642667v426.112a256 256 0 0 1-114.005333 212.992L512 981.333333l-269.994667-180.010666A256 256 0 0 1 128 588.373333V162.218667a42.666667 42.666667 0 0 1 33.408-41.642667zM554.666667 405.333333V279.893333a21.333333 21.333333 0 0 0-38.698667-12.373333l-150.528 210.773333a21.333333 21.333333 0 0 0 17.365333 33.706667H448a21.333333 21.333333 0 0 1 21.333333 21.333333v125.44a21.333333 21.333333 0 0 0 38.698667 12.373334l150.528-210.773334a21.333333 21.333333 0 0 0-17.365333-33.706666H576a21.333333 21.333333 0 0 1-21.333333-21.333334z" fill="#6395f9" p-id="16862" data-spm-anchor-id="a313x.7781069.0.i14" class=""></path></svg>
